<svg width="24" height="28" viewBox="0 0 24 28" fill="none" xmlns="http://www.w3.org/2000/svg">
<path d="M5.07539 6.93819C5.07539 3.10651 8.17512 0 11.9998 0C15.8241 0 18.9246 3.10651 18.9246 6.93819C18.9246 10.7695 15.8241 13.876 11.9998 13.876C8.17512 13.876 5.07539 10.7695 5.07539 6.93819Z" fill="#3D3D3D"/>
<path d="M23.9014 24.2066L22.9138 20.3934C22.1092 17.2857 19.9371 14.8208 17.145 13.5771C15.7235 14.6844 13.9392 15.3452 11.9998 15.3452C10.0604 15.3452 8.2761 14.6844 6.855 13.5771C4.06291 14.8208 1.89085 17.2857 1.08624 20.3934L0.0986111 24.2066C-0.398751 26.1266 1.04798 28 3.02796 28H20.972C22.952 28 24.3988 26.1266 23.9014 24.2066Z" fill="#3D3D3D"/>
</svg>
