<svg width="30" height="19" viewBox="0 0 30 19" fill="none" xmlns="http://www.w3.org/2000/svg">
<path d="M19.8303 8.1427C22.018 8.1427 23.7829 6.31733 23.7829 4.07117C23.7829 1.82537 22.018 0 19.8303 0C17.6423 0 15.8641 1.82537 15.8641 4.07117C15.8641 6.31733 17.6423 8.1427 19.8303 8.1427ZM9.254 8.1427C11.442 8.1427 13.207 6.31733 13.207 4.07117C13.207 1.82537 11.442 0 9.254 0C7.06599 0 5.28815 1.82537 5.28815 4.07117C5.28815 6.31733 7.06599 8.1427 9.254 8.1427ZM9.254 10.8569C6.16707 10.8569 0 12.4448 0 15.6069V19H18.508V15.6069C18.508 12.4448 12.3409 10.8569 9.254 10.8569ZM19.8303 10.8569C19.4466 10.8569 19.0171 10.8841 18.5544 10.9317C20.0879 12.0651 21.1523 13.5917 21.1523 15.6069V19H29.0843V15.6069C29.0843 12.4448 22.9169 10.8569 19.8303 10.8569Z" fill="#0F67FE"/>
</svg>
