<svg width="26" height="40" viewBox="0 0 26 40" fill="none" xmlns="http://www.w3.org/2000/svg">
<path fill-rule="evenodd" clip-rule="evenodd" d="M13.0008 26.4666C12.7539 26.4666 12.3216 26.0729 12.0378 25.8619C8.43957 23.1861 8.56074 23.4412 4.05824 22.721C3.60954 22.6491 3.63688 22.0708 3.54531 21.4731C2.86019 16.998 2.77091 17.2535 0.084626 13.506C-0.183228 13.1322 0.239507 12.7422 0.590724 12.252C3.21596 8.59498 2.97225 8.71138 3.67742 4.13008C3.74757 3.67329 4.31608 3.70112 4.90371 3.60837C9.29141 2.91369 9.05499 2.81816 12.7307 0.0862566C13.0979 -0.186423 13.48 0.243001 13.9625 0.601473C17.5566 3.27448 17.4409 3.02498 21.942 3.74286C22.3907 3.81427 22.3629 4.39302 22.4545 4.99125C23.1383 9.46357 23.2307 9.21407 25.9152 12.9583C26.1835 13.3321 25.7603 13.7226 25.4086 14.2127C22.7784 17.8768 23.0312 17.752 22.3229 22.3342C22.2523 22.7915 21.6837 22.7632 21.0966 22.8564C16.7025 23.552 16.9485 23.6462 13.2691 26.379C13.1899 26.4374 13.0951 26.4671 13.0008 26.4671V26.4666ZM13.0008 21.685C8.42134 21.685 4.69554 17.8925 4.69554 13.2315C4.69554 8.5704 8.42134 4.77793 13.0008 4.77793C17.5803 4.77793 21.3057 8.5704 21.3057 13.2315C21.3057 17.8925 17.5803 21.685 13.0008 21.685Z" fill="#3D3D3D"/>
<path fill-rule="evenodd" clip-rule="evenodd" d="M9.55927 18.5663C9.26636 18.5663 9.04406 18.2849 9.11512 17.9899L10.0116 14.2679L7.1372 11.7929C6.82607 11.5249 6.99234 11.0041 7.39913 10.9735L11.1536 10.6911L12.5776 7.14347C12.7321 6.75903 13.27 6.75949 13.4245 7.14347L14.8489 10.6911L18.6034 10.9735C19.0098 11.0041 19.1769 11.5254 18.8654 11.7929L15.9909 14.2679L16.887 17.9899C16.9849 18.3943 16.5481 18.7147 16.2023 18.4963L13.0008 16.4786C12.5457 16.7652 9.84762 18.5663 9.55927 18.5663Z" fill="#3D3D3D"/>
<path fill-rule="evenodd" clip-rule="evenodd" d="M17.1475 39.7222C16.9489 39.7222 16.7722 39.5905 16.7121 39.3976L12.5644 26.1425C12.3818 25.5568 13.2536 25.2767 13.4363 25.8601C16.7517 23.4059 15.6106 24.128 19.2166 22.7572C19.453 22.6672 19.2731 22.2508 19.5136 22.1724C19.7541 22.0954 20.0115 22.2299 20.0885 22.4747L24.5841 36.8461C24.708 37.2417 24.2912 37.5946 23.9318 37.397L19.6958 35.0765L17.558 39.463C17.4796 39.623 17.3202 39.7222 17.1475 39.7222Z" fill="#3D3D3D"/>
<path fill-rule="evenodd" clip-rule="evenodd" d="M8.85319 39.7222C8.681 39.7222 8.52156 39.6225 8.44366 39.4634L6.30585 35.0769L2.06939 37.3975C1.70997 37.5946 1.29316 37.2417 1.41706 36.8466L5.91272 22.4757C6.09539 21.8923 6.96728 22.1733 6.78416 22.7576L9.20668 23.6026C9.434 23.4774 9.71825 23.5701 9.83304 23.8057L12.5644 25.8601C12.7471 25.2762 13.619 25.5572 13.4363 26.1425L9.28868 39.3981C9.22855 39.5914 9.05271 39.7222 8.85319 39.7222Z" fill="#3D3D3D"/>
</svg>
