<svg width="34" height="29" viewBox="0 0 34 29" fill="none" xmlns="http://www.w3.org/2000/svg">
<path d="M9.26055 26.485C12.0205 26.485 13.8659 27.5159 14.6806 28.0977C14.9799 28.264 15.8278 28.7628 16.0107 28.7794V3.64106C14.93 1.62935 11.7545 0 8.46258 0C4.30609 0 0.781372 2.39413 0 4.00688V27.4826C0 28.5799 0.648436 28.9955 1.42981 28.9955C2.06157 28.9955 2.47726 28.7794 2.87621 28.4469C3.8572 27.5657 6.16819 26.485 9.26055 26.485ZM24.7559 26.485C27.8483 26.485 30.1429 27.5657 31.1402 28.4469C31.5225 28.7628 31.9383 28.9955 32.5699 28.9955C33.3513 28.9955 34 28.5799 34 27.4826V4.00688C33.2186 2.39413 29.7104 0 25.5539 0C22.262 0 19.0865 1.62935 18.0058 3.64106V28.8126C18.1887 28.796 19.0366 28.2806 19.3525 28.0977C20.1505 27.5159 21.996 26.485 24.7559 26.485Z" fill="#3D3D3D"/>
</svg>
