<svg width="29" height="37" viewBox="0 0 29 37" fill="none" xmlns="http://www.w3.org/2000/svg">
<path d="M5.34482 36.9656H23.6552C27.2242 36.9656 29 35.1725 29 31.569V5.41382C29 1.82761 27.2242 0 23.6552 0H5.34482C1.79311 0 0 1.82761 0 5.41382V31.569C0 35.1725 1.79311 36.9656 5.34482 36.9656ZM5.48275 34.1897C3.70686 34.1897 2.77584 33.2414 2.77584 31.5173V5.46554C2.77584 3.75865 3.70686 2.77584 5.49997 2.77584H23.5173C25.3104 2.77584 26.2242 3.74136 26.2242 5.46554V31.5173C26.2242 33.2414 25.3104 34.1897 23.5345 34.1897H5.48275ZM7.98273 9.98277H21.0517C21.6552 9.98277 22.1207 9.50005 22.1207 8.89653C22.1207 8.31031 21.6552 7.86208 21.0517 7.86208H7.98273C7.34479 7.86208 6.89649 8.31031 6.89649 8.89653C6.89649 9.50005 7.34479 9.98277 7.98273 9.98277ZM7.98273 16H21.0517C21.6552 16 22.1207 15.5172 22.1207 14.9138C22.1207 14.3276 21.6552 13.8793 21.0517 13.8793H7.98273C7.34479 13.8793 6.89649 14.3276 6.89649 14.9138C6.89649 15.5172 7.34479 16 7.98273 16ZM7.98273 22.0173H14.1724C14.7759 22.0173 15.2414 21.5517 15.2414 20.9656C15.2414 20.3621 14.7759 19.8965 14.1724 19.8965H7.98273C7.34479 19.8965 6.89649 20.3621 6.89649 20.9656C6.89649 21.5517 7.34479 22.0173 7.98273 22.0173Z" fill="#3D3D3D"/>
</svg>
