<svg width="16" height="16" viewBox="0 0 16 16" fill="none" xmlns="http://www.w3.org/2000/svg">
<path d="M15.3644 13.0085C16.0159 13.6604 16.0159 14.7135 15.3644 15.3654C15.0394 15.6904 14.6127 15.8537 14.1858 15.8537C13.7592 15.8537 13.3325 15.6904 13.0075 15.3654L7.99928 10.3568L2.99104 15.3654C2.66603 15.6904 2.2394 15.8537 1.81276 15.8537C1.38582 15.8537 0.959183 15.6904 0.63417 15.3654C-0.0173798 14.7135 -0.0173798 13.6604 0.63417 13.0085L5.64272 8.00026L0.63417 2.99202C-0.0173798 2.34016 -0.0173798 1.287 0.63417 0.635147C1.28603 -0.0164032 2.33919 -0.0164032 2.99104 0.635147L7.99928 5.64369L13.0075 0.635147C13.6594 -0.0164032 14.7125 -0.0164032 15.3644 0.635147C16.0159 1.287 16.0159 2.34016 15.3644 2.99202L10.3559 8.00026L15.3644 13.0085Z" fill="#8896A4"/>
</svg>
