<svg width="52" height="52" viewBox="0 0 52 52" fill="none" xmlns="http://www.w3.org/2000/svg">
<rect width="52" height="52" rx="25.5" fill="#F4F6FC"/>
<path d="M14 21.3047V34.0873C14 35.382 15.0532 36.4351 16.3478 36.4351H18.6957V21.3047H14Z" fill="#7C8DB5"/>
<path d="M35.6522 14H16.3478C15.0532 14 14 15.0532 14 16.3478V19.7391H38V16.3478C38 15.0532 36.9468 14 35.6522 14ZM17.913 17.6522C17.4808 17.6522 17.1304 17.3018 17.1304 16.8695C17.1304 16.4374 17.4808 16.0869 17.913 16.0869C18.3453 16.0869 18.6957 16.4373 18.6957 16.8695C18.6957 17.3017 18.3453 17.6522 17.913 17.6522ZM21.0435 17.6522C20.6113 17.6522 20.2609 17.3018 20.2609 16.8695C20.2609 16.4374 20.6113 16.0869 21.0435 16.0869C21.4757 16.0869 21.8261 16.4373 21.8261 16.8695C21.8261 17.3017 21.4757 17.6522 21.0435 17.6522ZM24.1739 17.6522C23.7417 17.6522 23.3913 17.3018 23.3913 16.8695C23.3913 16.4374 23.7417 16.0869 24.1739 16.0869C24.6061 16.0869 24.9565 16.4373 24.9565 16.8695C24.9565 17.3017 24.6061 17.6522 24.1739 17.6522Z" fill="#7C8DB5"/>
<path d="M20.2607 21.3047V36.4351H35.6521C36.9467 36.4351 37.9999 35.3819 37.9999 34.0873V21.3047H20.2607ZM34.0869 32.2612H24.1738C23.7417 32.2612 23.3911 31.9109 23.3911 31.4786C23.3911 31.0462 23.7417 30.6959 24.1738 30.6959H34.0868C34.5189 30.6959 34.8694 31.0462 34.8694 31.4786C34.8694 31.9109 34.5189 32.2612 34.0869 32.2612ZM34.0869 29.1307H24.1738C23.7417 29.1307 23.3911 28.7804 23.3911 28.3481C23.3911 27.9158 23.7417 27.5655 24.1738 27.5655H34.0868C34.5189 27.5655 34.8694 27.9158 34.8694 28.3481C34.8694 28.7804 34.5189 29.1307 34.0869 29.1307ZM34.0869 26.0003H24.1738C23.7417 26.0003 23.3911 25.65 23.3911 25.2177C23.3911 24.7854 23.7417 24.4351 24.1738 24.4351H34.0868C34.5189 24.4351 34.8694 24.7854 34.8694 25.2177C34.8694 25.65 34.5189 26.0003 34.0869 26.0003Z" fill="#7C8DB5"/>
</svg>
