<svg width="24" height="29" viewBox="0 0 24 29" fill="none" xmlns="http://www.w3.org/2000/svg">
<path d="M22.8395 8.32112L15.7091 1.19073C15.6496 1.12914 15.578 1.08043 15.4989 1.04764C15.4197 1.01485 15.3347 0.99866 15.2491 1.00009H3.60257C2.91233 1.00009 2.25035 1.27429 1.76228 1.76236C1.2742 2.25044 1 2.91241 1 3.60266V25.8547C1 26.5449 1.2742 27.2069 1.76228 27.6949C2.25035 28.183 2.91233 28.4572 3.60257 28.4572H20.4275C21.1178 28.4572 21.7798 28.183 22.2678 27.6949C22.7559 27.2069 23.0301 26.5449 23.0301 25.8547V8.78113C23.0296 8.60868 22.9611 8.44339 22.8395 8.32112V8.32112ZM20.8088 8.13048H16.8757C16.6168 8.13048 16.3686 8.02766 16.1856 7.84463C16.0025 7.6616 15.8997 7.41336 15.8997 7.15452V3.22138L20.8088 8.13048ZM20.4275 27.1559H3.60452C3.2594 27.1559 2.92841 27.0188 2.68438 26.7748C2.44034 26.5308 2.30324 26.1998 2.30324 25.8547V3.60266C2.30324 3.25754 2.44034 2.92655 2.68438 2.68251C2.92841 2.43847 3.2594 2.30137 3.60452 2.30137H14.6004V7.15452C14.6004 7.75848 14.8403 8.33771 15.2674 8.76478C15.6944 9.19185 16.2737 9.43177 16.8776 9.43177H21.7308V25.8547C21.7308 26.0257 21.6971 26.1951 21.6315 26.3531C21.566 26.5111 21.47 26.6546 21.349 26.7755C21.2279 26.8964 21.0842 26.9922 20.9261 27.0574C20.768 27.1227 20.5986 27.1562 20.4275 27.1559V27.1559Z" fill="#878787" stroke="#878787" stroke-width="0.4"/>
<path d="M9.40219 11.02C9.92337 11.02 10.4328 10.8654 10.8662 10.5759C11.2995 10.2863 11.6373 9.87477 11.8367 9.39327C12.0362 8.91177 12.0883 8.38194 11.9867 7.87078C11.885 7.35962 11.634 6.89009 11.2655 6.52156C10.897 6.15304 10.4274 5.90207 9.91628 5.80039C9.40512 5.69871 8.87529 5.7509 8.39378 5.95034C7.91228 6.14979 7.50073 6.48754 7.21119 6.92088C6.92164 7.35422 6.76709 7.86369 6.76709 8.38486C6.76795 9.08347 7.04585 9.75322 7.53984 10.2472C8.03384 10.7412 8.70359 11.0191 9.40219 11.02V11.02ZM9.40219 7.05104C9.666 7.05104 9.92388 7.12927 10.1432 7.27583C10.3626 7.42239 10.5335 7.63071 10.6345 7.87443C10.7354 8.11815 10.7618 8.38634 10.7104 8.64508C10.6589 8.90381 10.5319 9.14147 10.3453 9.32801C10.1588 9.51455 9.92114 9.64158 9.66241 9.69305C9.40367 9.74452 9.13549 9.7181 8.89176 9.61715C8.64804 9.51619 8.43973 9.34524 8.29316 9.12589C8.1466 8.90655 8.06838 8.64867 8.06838 8.38486C8.06889 8.03127 8.20958 7.69231 8.45961 7.44228C8.70964 7.19225 9.0486 7.05156 9.40219 7.05104Z" fill="#878787" stroke="#878787" stroke-width="0.4"/>
<path d="M5.58912 16.0625C5.76168 16.0625 5.92717 15.9939 6.04919 15.8719C6.17121 15.7499 6.23976 15.5844 6.23976 15.4118V15.0149C6.24062 14.3757 6.49494 13.7629 6.94696 13.3109C7.39898 12.8588 8.0118 12.6045 8.65105 12.6037H10.154C10.7933 12.6045 11.4061 12.8588 11.8581 13.3109C12.3101 13.7629 12.5645 14.3757 12.5653 15.0149V15.4118C12.5653 15.5844 12.6339 15.7499 12.7559 15.8719C12.8779 15.9939 13.0434 16.0625 13.216 16.0625C13.3885 16.0625 13.554 15.9939 13.676 15.8719C13.7981 15.7499 13.8666 15.5844 13.8666 15.4118V15.0149C13.8654 14.0307 13.4739 13.0871 12.7779 12.3911C12.0819 11.6951 11.1383 11.3036 10.154 11.3024H8.65105C7.66678 11.3036 6.72317 11.6951 6.02719 12.3911C5.33121 13.0871 4.93968 14.0307 4.93848 15.0149V15.4118C4.93848 15.5844 5.00703 15.7499 5.12905 15.8719C5.25106 15.9939 5.41656 16.0625 5.58912 16.0625V16.0625Z" fill="#878787" stroke="#878787" stroke-width="0.4"/>
<path d="M5.22681 20.8232H13.1224C13.2949 20.8232 13.4604 20.7547 13.5824 20.6327C13.7045 20.5106 13.773 20.3451 13.773 20.1726C13.773 20 13.7045 19.8345 13.5824 19.7125C13.4604 19.5905 13.2949 19.5219 13.1224 19.5219H5.22681C5.05425 19.5219 4.88876 19.5905 4.76674 19.7125C4.64472 19.8345 4.57617 20 4.57617 20.1726C4.57617 20.3451 4.64472 20.5106 4.76674 20.6327C4.88876 20.7547 5.05425 20.8232 5.22681 20.8232V20.8232Z" fill="#878787" stroke="#878787" stroke-width="0.4"/>
<path d="M17.589 22.9482H5.22681C5.05425 22.9482 4.88876 23.0168 4.76674 23.1388C4.64472 23.2608 4.57617 23.4263 4.57617 23.5989C4.57617 23.7714 4.64472 23.9369 4.76674 24.059C4.88876 24.181 5.05425 24.2495 5.22681 24.2495H17.589C17.7616 24.2495 17.9271 24.181 18.0491 24.059C18.1711 23.9369 18.2397 23.7714 18.2397 23.5989C18.2397 23.4263 18.1711 23.2608 18.0491 23.1388C17.9271 23.0168 17.7616 22.9482 17.589 22.9482Z" fill="#878787" stroke="#878787" stroke-width="0.4"/>
</svg>
