<svg width="19" height="11" viewBox="0 0 19 11" fill="none" xmlns="http://www.w3.org/2000/svg">
<path d="M9.01341 10.1441C9.27269 10.1441 9.53198 10.0404 9.70834 9.8433L17.7468 1.61816C17.9231 1.44185 18.0268 1.21367 18.0268 0.954337C18.0268 0.415008 17.6119 0.00012207 17.0726 0.00012207C16.8236 0.00012207 16.5747 0.103854 16.3984 0.269764L9.01341 7.82069L1.62843 0.269764C1.45208 0.103854 1.21355 0.00012207 0.95426 0.00012207C0.414886 0.00012207 0 0.415008 0 0.954337C0 1.21367 0.103733 1.44185 0.280043 1.62851L8.31848 9.8433C8.51554 10.0404 8.74372 10.1441 9.01341 10.1441Z" fill="black"/>
</svg>
