<svg width="35" height="21" viewBox="0 0 35 21" fill="none" xmlns="http://www.w3.org/2000/svg">
<path d="M19.5163 0.253335C18.4078 -0.0844449 16.5926 -0.0844449 15.4837 0.253335L0.831394 4.70832C-0.277131 5.04569 -0.277131 5.59725 0.831394 5.93462L15.4837 10.3892C16.5926 10.7266 18.4078 10.7266 19.5163 10.3892L34.1686 5.93462C35.2771 5.59725 35.2771 5.04569 34.1686 4.70832L19.5163 0.253335Z" fill="#3D3D3D"/>
<path d="M15.7807 13.0198L6.80756 10.2199V18.215C6.80756 18.215 8.96744 21 17.5 21C26.0326 21 28.1924 18.215 28.1924 18.215V10.2199L19.2193 13.0198C18.0997 13.3695 16.9007 13.3695 15.7807 13.0198Z" fill="#3D3D3D"/>
<path d="M2.37757 14.2312H2.37963V8.28631L1.19213 7.86408V14.2312H1.19377L0.474362 15.563C0.356311 15.7813 0.294201 16.026 0.294201 16.2744V16.3588C0.294201 17.1843 0.962196 17.8533 1.78608 17.8533C2.60956 17.8533 3.27755 17.1843 3.27755 16.3588V16.2744C3.27755 16.026 3.21586 15.7813 3.09739 15.563L2.37757 14.2312Z" fill="#3D3D3D"/>
</svg>
