<svg width="27" height="27" viewBox="0 0 27 27" fill="none" xmlns="http://www.w3.org/2000/svg">
<path d="M13.5136 26.9999C20.8958 26.9999 27 20.8821 27 13.4999C27 6.13134 20.8821 0 13.5 0C6.11782 0 0 6.13134 0 13.4999C0 20.8821 6.1314 26.9999 13.5136 26.9999ZM9.59818 6.45768C10.4003 4.432 11.5015 2.97733 12.7115 2.52865V6.77033C11.5967 6.74318 10.5499 6.63442 9.59818 6.45768ZM14.2749 2.52865C15.4849 2.97733 16.5997 4.432 17.3882 6.45768C16.4365 6.63442 15.4033 6.74318 14.2749 6.77033V2.52865ZM17.1435 2.90934C18.5981 3.41237 19.9169 4.18727 21.0181 5.2069C20.4199 5.54676 19.7265 5.83226 18.9516 6.07699C18.4622 4.81263 17.8368 3.73865 17.1435 2.90934ZM5.96828 5.2069C7.0831 4.2009 8.40181 3.41237 9.85648 2.90934C9.14956 3.73865 8.53777 4.81263 8.03474 6.07699C7.27342 5.83226 6.58007 5.54676 5.96828 5.2069ZM20.2432 12.7114C20.1752 10.8217 19.8897 9.06794 19.4411 7.51809C20.4607 7.20538 21.3579 6.81117 22.1193 6.34892C23.5604 8.0891 24.4984 10.2915 24.6616 12.7114H20.2432ZM2.33839 12.7114C2.5015 10.2915 3.426 8.0891 4.88067 6.34892C5.62843 6.81117 6.53929 7.20538 7.54529 7.51809C7.09667 9.06794 6.8248 10.8217 6.75682 12.7114H2.33839ZM14.2749 12.7114V8.33376C15.5528 8.29299 16.7628 8.14345 17.8912 7.91235C18.2991 9.36702 18.571 10.9984 18.639 12.7114H14.2749ZM8.36103 12.7114C8.41538 10.9984 8.68731 9.36702 9.10878 7.91235C10.2235 8.14345 11.4471 8.29299 12.7115 8.33376V12.7114H8.36103ZM2.33839 14.2748H6.75682C6.81117 16.1918 7.09667 17.9864 7.54529 19.5498C6.55287 19.8625 5.65557 20.2431 4.90788 20.7054C3.43958 18.938 2.5015 16.722 2.33839 14.2748ZM8.34745 14.2748H12.7115V18.734C11.4471 18.7748 10.2235 18.9108 9.10878 19.1555C8.68731 17.6873 8.41538 16.015 8.34745 14.2748ZM14.2749 18.734V14.2748H18.639C18.5846 16.015 18.3126 17.6873 17.8912 19.1555C16.7628 18.9108 15.5528 18.7748 14.2749 18.734ZM19.4411 19.5498C19.9033 17.9864 20.1752 16.1918 20.2432 14.2748H24.6616C24.512 16.722 23.574 18.9516 22.0921 20.7054C21.3444 20.2567 20.4471 19.8625 19.4411 19.5498ZM9.59818 20.6102C10.5499 20.4334 11.5967 20.3247 12.7115 20.2975V24.5392C11.5015 24.0905 10.4003 22.6359 9.59818 20.6102ZM14.2749 20.2975C15.4033 20.3247 16.4365 20.4334 17.3882 20.6102C16.5997 22.6359 15.4849 24.0905 14.2749 24.5392V20.2975ZM6.00906 21.8338C6.60728 21.5075 7.28699 21.222 8.03474 20.9909C8.5242 22.2144 9.10878 23.2477 9.78849 24.077C8.37466 23.5875 7.09667 22.8126 6.00906 21.8338ZM18.9516 20.9909C19.713 21.222 20.3927 21.5075 20.9909 21.8473C19.9033 22.8262 18.6118 23.6011 17.1979 24.0905C17.8776 23.2612 18.4758 22.2144 18.9516 20.9909Z" fill="#3D3D3D"/>
</svg>
