<svg width="20" height="14" viewBox="0 0 20 14" fill="none" xmlns="http://www.w3.org/2000/svg">
<path fill-rule="evenodd" clip-rule="evenodd" d="M1.46341 10.7348C2.27164 10.7348 2.92683 11.3891 2.92683 12.1962C2.92683 13.0034 2.27164 13.6577 1.46341 13.6577C0.655193 13.6577 0 13.0034 0 12.1962C0 11.3891 0.655193 10.7348 1.46341 10.7348ZM19.0235 11.222C19.5628 11.222 20 11.6544 20 12.1962C20 12.7343 19.5662 13.1705 19.0235 13.1705H5.3667C4.82742 13.1705 4.39024 12.7381 4.39024 12.1962C4.39024 11.6582 4.82403 11.222 5.3667 11.222H19.0235ZM1.46341 5.86338C2.27164 5.86338 2.92683 6.51768 2.92683 7.32481C2.92683 8.13193 2.27164 8.78624 1.46341 8.78624C0.655193 8.78624 0 8.13193 0 7.32481C0 6.51768 0.655193 5.86338 1.46341 5.86338ZM19.0235 6.35052C19.5628 6.35052 20 6.78297 20 7.32481C20 7.86289 19.5662 8.2991 19.0235 8.2991H5.3667C4.82742 8.2991 4.39024 7.86664 4.39024 7.32481C4.39024 6.78672 4.82403 6.35052 5.3667 6.35052H19.0235ZM1.46341 0.991943C2.27164 0.991943 2.92683 1.64625 2.92683 2.45337C2.92683 3.2605 2.27164 3.9148 1.46341 3.9148C0.655193 3.9148 0 3.2605 0 2.45337C0 1.64625 0.655193 0.991943 1.46341 0.991943ZM19.0235 1.47909C19.5628 1.47909 20 1.91154 20 2.45337C20 2.99146 19.5662 3.42766 19.0235 3.42766H5.3667C4.82742 3.42766 4.39024 2.99521 4.39024 2.45337C4.39024 1.91529 4.82403 1.47909 5.3667 1.47909H19.0235Z" fill="black"/>
</svg>
