<svg width="31" height="27" viewBox="0 0 31 27" fill="none" xmlns="http://www.w3.org/2000/svg">
<path d="M22.8541 17.1905C23.143 17.358 23.512 17.2576 23.6772 16.9645C23.8424 16.6714 23.7434 16.2998 23.4572 16.1322L18.2203 13.0645V6.32274C18.2203 5.98491 17.9502 5.71148 17.6172 5.71148C17.2842 5.71148 17.0147 5.98491 17.0147 6.32274V13.7707L22.8541 17.1905Z" fill="#3D3D3D"/>
<path d="M10.9165 13.5H6.86859C6.86859 7.43663 11.7149 2.52043 17.692 2.52043C23.6686 2.52043 28.5149 7.43663 28.5149 13.5C28.5149 19.5634 23.6686 24.4791 17.692 24.4791C16.4944 24.4791 15.306 24.2782 14.1719 23.882C13.5252 23.6555 12.8183 24.0048 12.595 24.6636C12.3723 25.3196 12.7193 26.0372 13.366 26.2632C20.3142 28.6863 27.8849 24.937 30.2736 17.8885C32.6617 10.8394 28.9689 3.16279 22.0207 0.736882C15.072 -1.68629 7.50128 2.06253 5.11311 9.11157C4.6343 10.524 4.38897 12.0063 4.38897 13.5H0.341089C0.151177 13.5 0 13.6534 0 13.846C0 13.9328 0.0328176 14.0163 0.0909213 14.0807L5.37996 19.8701C5.50639 20.0099 5.72374 20.0186 5.86147 19.8871C5.86685 19.8816 5.87223 19.8761 5.87814 19.8701L11.1672 14.0807C11.2963 13.941 11.2882 13.7205 11.1505 13.5923C11.087 13.5333 11.0047 13.5 10.9165 13.5Z" fill="#3D3D3D"/>
</svg>
