<svg width="22" height="22" viewBox="0 0 22 22" fill="none" xmlns="http://www.w3.org/2000/svg">
<path d="M8.25001 11C8.25001 9.48387 9.48386 8.25002 11 8.25002H14.6667V0.916654C14.6667 0.410653 14.2569 0 13.75 0H0.916654C0.409751 0 0 0.410653 0 0.916654V21.0833C0 21.5893 0.409751 22 0.916654 22H13.75C14.2569 22 14.6667 21.5893 14.6667 21.0833V14.6667V13.75H11C9.48386 13.75 8.25001 12.5162 8.25001 11Z" fill="#878787"/>
<path d="M21.7935 11.5786C21.7963 11.5752 21.7986 11.5716 21.8013 11.5681C21.817 11.5483 21.8323 11.5281 21.8463 11.5069C21.8529 11.497 21.8585 11.4867 21.8647 11.4766C21.874 11.4615 21.8835 11.4464 21.8919 11.4307C21.8988 11.4178 21.9046 11.4045 21.9108 11.3913C21.9173 11.3777 21.9241 11.3643 21.9299 11.3503C21.9361 11.3353 21.9412 11.32 21.9466 11.3047C21.951 11.292 21.956 11.2796 21.9599 11.2666C21.9654 11.2487 21.9695 11.2305 21.9739 11.2123C21.9764 11.2017 21.9795 11.1912 21.9817 11.1804C21.9867 11.1555 21.9902 11.1303 21.9932 11.1051C21.9937 11.1008 21.9946 11.0966 21.995 11.0922C22.0012 11.0306 22.0012 10.9684 21.995 10.9068C21.9946 10.9024 21.9936 10.8982 21.9932 10.8939C21.9902 10.8687 21.9867 10.8435 21.9817 10.8186C21.9795 10.8078 21.9764 10.7973 21.9739 10.7867C21.9695 10.7685 21.9654 10.7503 21.9599 10.7324C21.956 10.7194 21.951 10.707 21.9466 10.6943C21.9412 10.679 21.9361 10.6637 21.9299 10.6487C21.9241 10.6347 21.9173 10.6213 21.9108 10.6077C21.9046 10.5945 21.8988 10.5812 21.8919 10.5683C21.8835 10.5526 21.874 10.5375 21.8647 10.5224C21.8585 10.5123 21.8529 10.502 21.8463 10.4921C21.8323 10.4709 21.817 10.4507 21.8013 10.4308C21.7986 10.4274 21.7963 10.4238 21.7935 10.4204C21.7729 10.3951 21.7509 10.3709 21.7277 10.348L18.0644 6.6847C17.706 6.32629 17.1267 6.32629 16.7683 6.6847C16.4099 7.0431 16.4099 7.62245 16.7683 7.98085L18.8702 10.0828H10.9997C10.4928 10.0828 10.083 10.4934 10.083 10.9994C10.083 11.5054 10.4928 11.9161 10.9997 11.9161H18.8702L16.7683 14.018C16.4099 14.3764 16.4099 14.9557 16.7683 15.3141C16.947 15.4929 17.1817 15.5827 17.4164 15.5827C17.651 15.5827 17.8857 15.4929 18.0645 15.3141L21.7277 11.6509C21.7508 11.6281 21.7728 11.6039 21.7935 11.5786Z" fill="#878787"/>
</svg>
