<svg width="31" height="27" viewBox="0 0 31 27" fill="none" xmlns="http://www.w3.org/2000/svg">
<path fill-rule="evenodd" clip-rule="evenodd" d="M13.9217 0H17.0783C17.1431 0 17.2059 0.0130273 17.2661 0.0396245C17.3263 0.0662218 17.3794 0.103675 17.4253 0.15307C17.4712 0.201922 17.5069 0.258373 17.5319 0.322424C17.5564 0.386474 17.5692 0.453239 17.5692 0.522717V6.79695C17.5692 6.86589 17.5564 6.93265 17.5319 6.9967C17.5069 7.06075 17.4712 7.11721 17.4253 7.16606C17.3794 7.21545 17.3263 7.25291 17.2661 7.2795C17.2059 7.3061 17.1431 7.31913 17.0783 7.31913H13.9217C13.8569 7.31913 13.7941 7.3061 13.7339 7.2795C13.6737 7.25291 13.6206 7.21545 13.5747 7.16606C13.5288 7.11721 13.4931 7.06075 13.4686 6.9967C13.4436 6.93265 13.4308 6.86589 13.4308 6.79695V0.522717C13.4308 0.453239 13.4436 0.386474 13.4686 0.322424C13.4931 0.258373 13.5288 0.201922 13.5747 0.15307C13.6206 0.103675 13.6737 0.0662218 13.7339 0.0396245C13.7941 0.0130273 13.8569 0 13.9217 0Z" fill="#3D3D3D"/>
<path fill-rule="evenodd" clip-rule="evenodd" d="M12.8778 5.1908H2.80566C1.26278 5.1908 0 6.53532 0 8.17838V24.0124C0 25.6555 1.26278 27 2.80566 27H28.1943C29.7377 27 31 25.6555 31 24.0124V8.17838C31 6.53532 29.7377 5.1908 28.1943 5.1908H18.1227V6.79641C18.1227 7.40815 17.6523 7.90861 17.0783 7.90861H13.9222C13.3477 7.90861 12.8773 7.40815 12.8773 6.79641V5.1908H12.8778ZM5.40927 12.6652C5.40927 11.0666 6.62613 9.77096 8.12717 9.77096C9.62873 9.77096 10.8456 11.0666 10.8456 12.6652C10.8456 14.2637 9.62873 15.5599 8.12717 15.5599C6.62613 15.5599 5.40927 14.2637 5.40927 12.6652ZM10.6252 16.715C11.9874 16.715 13.1017 17.8663 13.1017 19.2727V21.8304H11.6538L11.3405 19.6711L11.0272 21.8304H5.22713L4.91437 19.6711L4.6011 21.8304H3.15311V19.2727C3.15311 17.8663 4.26742 16.715 5.62968 16.715H6.76848L8.12973 19.0246L9.48893 16.715H10.6252ZM16.3824 17.2073H27.8469V17.7974H16.3824V17.2073ZM16.3824 20.0212H27.8469V20.6107H16.3824V20.0212ZM16.3824 14.3934H27.8469V14.9835H16.3824V14.3934ZM16.3824 11.5801H27.8469V12.1696H16.3824V11.5801Z" fill="#3D3D3D"/>
</svg>
