<svg width="35" height="37" viewBox="0 0 35 37" fill="none" xmlns="http://www.w3.org/2000/svg">
<path d="M18.9924 15.9695H35V5.89349C35 1.97718 33.0227 0 29.0493 0H18.9924V15.9695ZM16.0265 15.9695V0H5.96958C2.01522 0 0 1.95812 0 5.89349V15.9695H16.0265ZM18.9924 34.9998H29.0493C33.0227 34.9998 35 33.0227 35 29.1063V18.9733H18.9924V34.9998ZM5.96958 34.9998H16.0265V18.9733H0V29.1063C0 33.0417 2.01522 34.9998 5.96958 34.9998Z" fill="#3D3D3D"/>
<path d="M18.9924 17.8117H35V7.73566C35 3.81934 33.0227 1.84216 29.0493 1.84216H18.9924V17.8117ZM16.0265 17.8117V1.84216H5.96958C2.01522 1.84216 0 3.80028 0 7.73566V17.8117H16.0265ZM18.9924 36.842H29.0493C33.0227 36.842 35 34.8648 35 30.9485V20.8155H18.9924V36.842ZM5.96958 36.842H16.0265V20.8155H0V30.9485C0 34.8839 2.01522 36.842 5.96958 36.842Z" fill="#3D3D3D"/>
</svg>
