<svg width="52" height="52" viewBox="0 0 52 52" fill="none" xmlns="http://www.w3.org/2000/svg">
<rect width="52" height="52" rx="25.5" fill="#F4F6FC"/>
<path d="M25.0016 39C26.4518 39 27.6383 37.8462 27.6383 36.4359H22.3649C22.3649 37.8462 23.5383 39 25.0016 39ZM32.9117 31.3077V24.8974C32.9117 20.9615 30.7496 17.6667 26.9791 16.7949V15.9231C26.9791 14.859 26.0959 14 25.0016 14C23.9074 14 23.0241 14.859 23.0241 15.9231V16.7949C19.2404 17.6667 17.0915 20.9487 17.0915 24.8974V31.3077L15.3909 32.9615C14.5603 33.7692 15.1404 35.1538 16.3137 35.1538H33.6764C34.8497 35.1538 35.443 33.7692 34.6124 32.9615L32.9117 31.3077Z" fill="#7C8DB5"/>
</svg>
