<svg width="29" height="29" viewBox="0 0 29 29" fill="none" xmlns="http://www.w3.org/2000/svg">
<path d="M5.4375 6.34375V6.3442H23.5625V6.34375C24.0634 6.34375 24.4688 5.93843 24.4688 5.4375C24.4688 4.93748 24.0634 4.53125 23.5625 4.53125C23.5617 4.53125 23.5611 4.5317 23.5603 4.5317H5.43971C5.43892 4.5317 5.43829 4.53125 5.4375 4.53125C4.93748 4.53125 4.53125 4.93748 4.53125 5.4375C4.53125 5.93843 4.93748 6.34375 5.4375 6.34375V6.34375Z" fill="#3D3D3D"/>
<path d="M5.4375 9.96924H14.5C15.0009 9.96924 15.4062 9.56346 15.4062 9.06299C15.4062 8.56251 15.0009 8.15674 14.5 8.15674H5.4375C4.93748 8.15674 4.53125 8.56251 4.53125 9.06299C4.53125 9.56346 4.93748 9.96924 5.4375 9.96924Z" fill="#3D3D3D"/>
<path d="M5.4375 13.5942H10.875C11.3759 13.5942 11.7812 13.1885 11.7812 12.688C11.7812 12.1875 11.3759 11.7817 10.875 11.7817H5.4375C4.93748 11.7817 4.53125 12.1875 4.53125 12.688C4.53125 13.1885 4.93748 13.5942 5.4375 13.5942Z" fill="#3D3D3D"/>
<path d="M19.9375 17.2186C20.9371 17.2186 21.75 16.4058 21.75 15.4061C21.75 14.4065 20.9371 13.5936 19.9375 13.5936C18.9379 13.5936 18.125 14.4065 18.125 15.4061C18.125 16.4058 18.9379 17.2186 19.9375 17.2186Z" fill="#3D3D3D"/>
<path d="M28.0938 0H0.90625C0.405717 0 0 0.405717 0 0.90625V19.0312C0 19.5297 0.407812 19.9375 0.90625 19.9375H15.4062V28.0938C15.4062 28.4372 15.6001 28.7509 15.9072 28.9044C16.2143 29.058 16.5811 29.0244 16.8564 28.8186L19.9375 26.5078L23.0186 28.8186C23.1788 28.9385 23.37 29 23.5625 29C23.7006 29 23.8395 28.9686 23.9678 28.9044C24.2749 28.7508 24.4688 28.4371 24.4688 28.0937V19.9375H28.0938C28.5922 19.9375 29 19.5297 29 19.0312V0.90625C29 0.407812 28.5922 0 28.0938 0ZM16.4461 14.0433L16.2864 13.2985L17.0112 13.0649C17.2886 12.9755 17.5064 12.7582 17.5958 12.4808L17.8298 11.7555L18.5742 11.9152C18.8583 11.9776 19.1556 11.8971 19.3725 11.7015L19.9376 11.1904L20.5022 11.7015C20.7182 11.8971 21.0177 11.9772 21.3005 11.9152L22.0452 11.7555L22.2793 12.4808C22.3687 12.7582 22.5864 12.9755 22.8638 13.0649L23.5887 13.2985L23.4289 14.0433C23.3674 14.3282 23.4471 14.6252 23.6426 14.8415L24.1533 15.4062L23.6426 15.9708C23.4471 16.1872 23.3674 16.4842 23.4289 16.7691L23.5887 17.5139L22.8638 17.7475C22.5864 17.8369 22.3687 18.0542 22.2793 18.3317L22.0452 19.057L21.3009 18.8968C21.015 18.8335 20.7177 18.9145 20.5022 19.1105L19.9375 19.6214L19.3724 19.1104C19.2042 18.9581 18.987 18.8763 18.7644 18.8763C18.7007 18.8763 18.637 18.8829 18.5737 18.8966L17.8294 19.0568L17.5958 18.3315C17.5064 18.054 17.2886 17.8368 17.0112 17.7474L16.2864 17.5137L16.4461 16.769C16.5076 16.484 16.428 16.1871 16.2324 15.9707L15.7217 15.406L16.2324 14.8414C16.428 14.6251 16.5076 14.3282 16.4461 14.0433V14.0433ZM20.4814 24.6502C20.3203 24.5294 20.1287 24.4688 19.9375 24.4688C19.7463 24.4688 19.5547 24.5294 19.3936 24.6502L17.2188 26.2812V21.006C17.2823 21.0061 17.3448 21.015 17.4095 21.0012L18.5011 20.7662L19.3295 21.5158C19.502 21.672 19.7198 21.7499 19.9374 21.7499C20.1552 21.7499 20.3729 21.672 20.5454 21.5158L21.3738 20.7662L22.4654 21.0012C22.5302 21.0151 22.5925 21.0062 22.6561 21.0062V26.2812L20.4814 24.6502V24.6502ZM27.1875 18.125H25.5374C25.5375 18.0615 25.5463 17.999 25.5325 17.9346L25.2984 16.8425L26.0472 16.0142C26.3591 15.669 26.3591 15.1433 26.0472 14.7982L25.2984 13.9698L25.5325 12.8777C25.6303 12.4228 25.3675 11.9675 24.9245 11.825L23.8616 11.4825L23.5187 10.4187C23.3762 9.97617 22.9204 9.71381 22.4659 9.81112L21.3739 10.0457L20.5455 9.29648C20.2003 8.98405 19.6746 8.98405 19.3295 9.29648L18.5011 10.0457L17.409 9.81112C16.9554 9.71466 16.4992 9.97617 16.3563 10.4187L16.0133 11.4825L14.9504 11.825C14.5075 11.9675 14.2446 12.4228 14.3424 12.8777L14.5765 13.9698L13.8278 14.7982C13.5158 15.1433 13.5158 15.669 13.8278 16.0142L14.5765 16.8425L14.3424 17.9346C14.3286 17.999 14.3375 18.0615 14.3376 18.125H1.8125V1.8125H27.1875V18.125V18.125Z" fill="#3D3D3D"/>
</svg>
