<svg width="42" height="42" viewBox="0 0 42 42" fill="none" xmlns="http://www.w3.org/2000/svg">
<path d="M14.904 17.956L11.868 25H9.744L12.816 18.196H9.216V16.432H14.904V17.956ZM15.5252 23.368C18.0692 21.552 19.3412 20.108 19.3412 19.036C19.3412 18.38 19.0572 18.052 18.4892 18.052C18.1692 18.052 17.9332 18.164 17.7812 18.388C17.6372 18.612 17.5572 18.96 17.5412 19.432H15.5372C15.5852 18.4 15.8972 17.624 16.4732 17.104C17.0492 16.584 17.7772 16.324 18.6572 16.324C19.5772 16.324 20.2692 16.556 20.7332 17.02C21.2052 17.484 21.4412 18.088 21.4412 18.832C21.4412 19.656 21.1252 20.464 20.4932 21.256C19.8612 22.04 19.1052 22.704 18.2252 23.248H21.5732V24.904H15.5252V23.368ZM24.2301 16.372C24.8141 16.372 25.2901 16.548 25.6581 16.9C26.0341 17.252 26.2221 17.748 26.2221 18.388C26.2221 19.028 26.0341 19.524 25.6581 19.876C25.2901 20.228 24.8141 20.404 24.2301 20.404C23.6301 20.404 23.1421 20.228 22.7661 19.876C22.3981 19.524 22.2141 19.028 22.2141 18.388C22.2141 17.748 22.3981 17.252 22.7661 16.9C23.1421 16.548 23.6301 16.372 24.2301 16.372ZM30.0501 16.492L25.4181 25H23.4381L28.0701 16.492H30.0501ZM23.5821 18.388C23.5821 18.636 23.6381 18.832 23.7501 18.976C23.8621 19.112 24.0141 19.18 24.2061 19.18C24.4061 19.18 24.5661 19.112 24.6861 18.976C24.8061 18.832 24.8661 18.636 24.8661 18.388C24.8661 18.14 24.8061 17.948 24.6861 17.812C24.5661 17.668 24.4061 17.596 24.2061 17.596C24.0141 17.596 23.8621 17.668 23.7501 17.812C23.6381 17.948 23.5821 18.14 23.5821 18.388ZM29.2701 21.076C29.8621 21.076 30.3421 21.252 30.7101 21.604C31.0781 21.956 31.2621 22.452 31.2621 23.092C31.2621 23.732 31.0781 24.232 30.7101 24.592C30.3421 24.944 29.8621 25.12 29.2701 25.12C28.6861 25.12 28.2061 24.944 27.8301 24.592C27.4621 24.232 27.2781 23.732 27.2781 23.092C27.2781 22.452 27.4621 21.956 27.8301 21.604C28.2061 21.252 28.6861 21.076 29.2701 21.076ZM28.6341 23.092C28.6341 23.348 28.6901 23.548 28.8021 23.692C28.9141 23.828 29.0701 23.896 29.2701 23.896C29.4621 23.896 29.6141 23.828 29.7261 23.692C29.8461 23.548 29.9061 23.348 29.9061 23.092C29.9061 22.844 29.8461 22.652 29.7261 22.516C29.6141 22.372 29.4621 22.3 29.2701 22.3C29.0701 22.3 28.9141 22.372 28.8021 22.516C28.6901 22.652 28.6341 22.844 28.6341 23.092Z" fill="#1AC5A6"/>
<circle cx="21" cy="21" r="18" stroke="#E4E8F0" stroke-width="6"/>
<mask id="path-3-inside-1_1_41" fill="white">
<path d="M21 0C24.985 4.75205e-08 28.8877 1.13385 32.2524 3.26911C35.617 5.40437 38.3046 8.4529 40.0014 12.0586C41.6981 15.6644 42.3339 19.6784 41.8344 23.632C41.335 27.5855 39.7209 31.3154 37.1808 34.3859C34.6407 37.4564 31.2793 39.7407 27.4894 40.9722C23.6994 42.2036 19.6373 42.3313 15.7775 41.3403C11.9177 40.3492 8.4196 38.2804 5.69168 35.3755C2.96377 32.4706 1.1187 28.8494 0.371975 24.935L6.25096 23.8136C6.78487 26.6124 8.10409 29.2015 10.0546 31.2785C12.005 33.3555 14.5062 34.8347 17.2659 35.5433C20.0257 36.2519 22.9301 36.1606 25.6399 35.2801C28.3497 34.3996 30.7531 32.7663 32.5693 30.5709C34.3855 28.3755 35.5395 25.7087 35.8966 22.8819C36.2537 20.0551 35.7991 17.185 34.586 14.6069C33.3728 12.0288 31.4512 9.84913 29.0454 8.32241C26.6397 6.7957 23.8493 5.985 21 5.985V0Z"/>
</mask>
<path d="M21 0C24.985 4.75205e-08 28.8877 1.13385 32.2524 3.26911C35.617 5.40437 38.3046 8.4529 40.0014 12.0586C41.6981 15.6644 42.3339 19.6784 41.8344 23.632C41.335 27.5855 39.7209 31.3154 37.1808 34.3859C34.6407 37.4564 31.2793 39.7407 27.4894 40.9722C23.6994 42.2036 19.6373 42.3313 15.7775 41.3403C11.9177 40.3492 8.4196 38.2804 5.69168 35.3755C2.96377 32.4706 1.1187 28.8494 0.371975 24.935L6.25096 23.8136C6.78487 26.6124 8.10409 29.2015 10.0546 31.2785C12.005 33.3555 14.5062 34.8347 17.2659 35.5433C20.0257 36.2519 22.9301 36.1606 25.6399 35.2801C28.3497 34.3996 30.7531 32.7663 32.5693 30.5709C34.3855 28.3755 35.5395 25.7087 35.8966 22.8819C36.2537 20.0551 35.7991 17.185 34.586 14.6069C33.3728 12.0288 31.4512 9.84913 29.0454 8.32241C26.6397 6.7957 23.8493 5.985 21 5.985V0Z" stroke="#1AC5A6" stroke-width="10" mask="url(#path-3-inside-1_1_41)"/>
</svg>
