<svg width="29" height="29" viewBox="0 0 29 29" fill="none" xmlns="http://www.w3.org/2000/svg">
<path d="M23.6468 0.183017V5.33981H28.8165L23.6468 0.183017Z" fill="#3D3D3D"/>
<path d="M0 22.0302V26.7005C0 28.1035 1.28531 29.2339 2.75409 28.9584C3.8535 28.7445 4.58886 27.7379 4.58886 26.608V21.299H0.704455C0.33557 21.299 0 21.6338 0 22.0302Z" fill="#3D3D3D"/>
<path d="M24.442 15.532H10.8889C10.4012 15.532 10.0347 15.1357 10.0347 14.6776C10.0347 14.2191 10.4321 13.8227 10.8889 13.8227H24.442C24.9321 13.8227 25.2986 14.2191 25.2986 14.6776C25.2986 15.1665 24.9012 15.532 24.442 15.532ZM24.442 20.4133H10.8889C10.4012 20.4133 10.0347 20.017 10.0347 19.5589C10.0347 19.1004 10.4321 18.7064 10.8889 18.7064H24.442C24.9321 18.7064 25.2986 19.1004 25.2986 19.5589C25.2986 20.017 24.9012 20.4133 24.442 20.4133ZM24.442 25.2667H10.8889C10.4012 25.2667 10.0347 24.8674 10.0347 24.4118C10.0347 23.9533 10.4321 23.5569 10.8889 23.5569H24.442C24.9321 23.5569 25.2986 23.9533 25.2986 24.4118C25.2986 24.8674 24.9012 25.2667 24.442 25.2667ZM10.0038 4.5774C10.0038 4.08854 10.4012 3.72299 10.8609 3.72299H17.6515C18.1415 3.72299 18.508 4.11937 18.508 4.5774V9.82474C18.508 10.3136 18.1082 10.6791 17.6515 10.6791H10.8889C10.4012 10.6791 10.0347 10.2828 10.0347 9.82474L10.0323 4.5774H10.0038ZM22.7898 7.04911C22.3021 7.04911 21.9332 6.65273 21.9332 6.19422V0H7.7688C6.97358 0 6.33092 0.641047 6.33092 1.43429V26.7005C6.33092 27.5554 6.05764 28.3482 5.59798 28.9892H26.7051C27.9595 28.9892 29 27.9518 29 26.7005V7.04911H22.7898Z" fill="#3D3D3D"/>
<path d="M11.7459 5.43228H16.7944V8.94143H11.7459V5.43228Z" fill="#3D3D3D"/>
</svg>
