<svg width="52" height="52" viewBox="0 0 52 52" fill="none" xmlns="http://www.w3.org/2000/svg">
<rect width="52" height="52" rx="25.5" fill="#F4F6FC"/>
<path d="M31.3984 28.5427H30.4252L30.0803 28.2103C31.5585 26.4868 32.3222 24.1354 31.9034 21.6363C31.3244 18.2139 28.4667 15.4809 25.0176 15.0623C19.8071 14.4222 15.4218 18.8048 16.0624 24.0123C16.4812 27.4593 19.2158 30.3155 22.6402 30.8941C25.1408 31.3126 27.4935 30.5494 29.2181 29.0721L29.5506 29.4168V30.3893L34.7858 35.6214C35.2909 36.1262 36.1162 36.1262 36.6212 35.6214C37.1263 35.1167 37.1263 34.2919 36.6212 33.7871L31.3984 28.5427ZM24.0075 28.5427C20.9403 28.5427 18.4644 26.0682 18.4644 23.0028C18.4644 19.9374 20.9403 17.4629 24.0075 17.4629C27.0747 17.4629 29.5506 19.9374 29.5506 23.0028C29.5506 26.0682 27.0747 28.5427 24.0075 28.5427Z" fill="#353A4D" fill-opacity="0.8"/>
</svg>
