<svg width="27" height="26" viewBox="0 0 27 26" fill="none" xmlns="http://www.w3.org/2000/svg">
<path d="M26.061 13.9978L25.0059 18.2166C24.948 18.4475 24.7247 18.599 24.4879 18.5664L21.7659 18.1971C21.587 18.1728 21.4147 18.2552 21.3171 18.4058C20.6407 19.4384 19.7766 20.3503 18.7458 21.0756C18.5987 21.1785 18.5221 21.353 18.5521 21.5296L19.0157 24.2167C19.0566 24.452 18.9134 24.6794 18.6831 24.7454L14.4917 25.9442C14.2618 26.0102 14.0194 25.8939 13.9292 25.6729C13.6611 25.0184 13.1235 23.708 12.8928 23.1442C12.8249 22.978 12.6682 22.8743 12.4884 22.8647C11.2286 22.7944 10.0102 22.4776 8.88892 21.9593C8.72611 21.8842 8.53632 21.9055 8.39746 22.0201L6.28539 23.7723C6.1017 23.9242 5.83181 23.9151 5.65943 23.7488L2.5231 20.7284C2.35072 20.563 2.33113 20.2948 2.47827 20.106L4.15547 17.9462C4.26517 17.8043 4.28127 17.6146 4.199 17.4549C3.62441 16.3242 3.28836 15.1566 3.17561 13.8949C3.15994 13.7156 3.04633 13.5633 2.87656 13.5012L0.306558 12.5559C0.0819433 12.473 -0.0438583 12.2356 0.0140366 12.0042L1.0692 7.78582C1.1271 7.55447 1.35041 7.40299 1.58677 7.43555L4.30913 7.80535C4.48804 7.82922 4.65998 7.74675 4.75793 7.59614C5.43308 6.56357 6.29845 5.65078 7.32837 4.92551C7.4755 4.82264 7.55168 4.64816 7.52208 4.4715L7.05805 1.78438C7.01713 1.54956 7.16078 1.32169 7.39062 1.25616L11.5825 0.0573439C11.8124 -0.0086298 12.0544 0.108994 12.1458 0.329051L13.1814 2.85298C13.2493 3.01922 13.4078 3.12599 13.5867 3.13641C13.8074 3.14856 14.025 3.17807 14.2422 3.20498C13.998 4.06308 13.9123 4.96457 14.012 5.86737C14.0268 6.00583 13.9824 6.14298 13.8844 6.24151L12.6756 7.4477C9.34903 7.66125 6.81123 10.7685 7.59172 14.2764C8.04705 16.3242 9.7051 17.977 11.7584 18.431C15.2769 19.2092 18.3937 16.6788 18.607 13.361L19.8158 12.1557C19.9155 12.0563 20.053 12.0107 20.1928 12.0264C21.1038 12.1258 21.9932 12.0459 22.8572 11.8037C22.8694 11.9048 22.8899 12.0068 22.8981 12.1075C22.9143 12.2863 23.0279 12.4387 23.1972 12.5012L25.7676 13.4465C25.9931 13.529 26.1185 13.7669 26.061 13.9978Z" fill="#878787"/>
<path d="M25.8027 3.45754C26.4099 5.2397 26.0029 7.29617 24.5751 8.71981C23.21 10.081 21.2647 10.5063 19.5326 10.0106C19.4373 9.98373 19.3359 10.0067 19.2653 10.0775L12.627 16.6961C10.895 16.5012 9.52596 15.1362 9.33008 13.4092L15.9684 6.79008C16.0385 6.72064 16.0624 6.61951 16.0354 6.52358C15.5383 4.79655 15.9649 2.8577 17.33 1.49569C18.7578 0.0720506 20.8211 -0.333774 22.6076 0.271708C22.7995 0.336813 22.8487 0.588989 22.7051 0.732222L19.1004 4.32692C19.0259 4.40114 18.9998 4.51225 19.0333 4.61165L19.5957 6.2853C19.6236 6.36776 19.6889 6.43287 19.7716 6.46065L21.4501 7.02142C21.5507 7.05484 21.6612 7.0288 21.7357 6.95458L25.3408 3.35988C25.484 3.21709 25.7374 3.26613 25.8027 3.45754Z" fill="#878787"/>
</svg>
