<svg width="21" height="31" viewBox="0 0 21 31" fill="none" xmlns="http://www.w3.org/2000/svg">
<path d="M16.5757 0.297632C16.2019 0.689092 16.2019 1.30902 16.5757 1.7005L17.7285 2.90765L14.0831 2.90788C11.9955 2.90788 10.2819 4.66965 10.2819 6.85592V14.5234H7.19727C6.76108 12.892 5.35905 11.6848 3.67645 11.6848C1.65133 11.6848 0 13.4141 0 15.5348C0 17.6554 1.65133 19.3847 3.67645 19.3847C5.35883 19.3847 6.79217 18.1775 7.19727 16.5462H10.2819V24.1483C10.2819 26.3344 11.9956 28.0964 14.0831 28.0964H17.7285L16.5757 29.3035C16.2019 29.695 16.2019 30.3149 16.5757 30.7064C16.9495 31.0979 17.5415 31.0979 17.9154 30.7064L20.6884 27.8026C20.8753 27.6068 20.9687 27.3458 20.9687 27.0848C20.9687 26.8237 20.8753 26.5627 20.6884 26.367L17.9154 23.4631C17.5416 23.0717 16.9496 23.0717 16.5757 23.4631C16.2019 23.8546 16.2019 24.4745 16.5757 24.866L17.7285 26.0731L14.0831 26.0736C13.0549 26.0736 12.1825 25.1926 12.1825 24.0833L12.1825 16.4811H17.6974L16.5446 17.6883C16.1708 18.0797 16.1708 18.6997 16.5446 19.0911C16.9184 19.4826 17.5104 19.4826 17.8843 19.0911L20.6573 16.1873C20.8442 15.9916 20.9376 15.7305 20.9376 15.4695C20.9376 15.2085 20.8442 14.9474 20.6573 14.7517L17.8843 11.8478C17.5104 11.4564 16.9184 11.4564 16.5446 11.8478C16.1708 12.2393 16.1708 12.8592 16.5446 13.2507L17.7286 14.5234H12.2138V6.88859C12.2138 5.81189 13.0551 4.89832 14.1144 4.89832H17.7598L16.607 6.10548C16.2332 6.49694 16.2332 7.11687 16.607 7.50834C16.9808 7.89981 17.5728 7.8998 17.9466 7.50834L20.7196 4.6045C20.9065 4.40877 21 4.18027 21 3.8867C21 3.62565 20.9065 3.3646 20.7196 3.16889L17.9466 0.265048C17.5728 -0.0936327 16.9497 -0.0936327 16.5757 0.297821L16.5757 0.297632ZM3.70777 17.3618C2.74195 17.3618 1.93169 16.5135 1.93169 15.5019C1.93169 14.4905 2.74173 13.642 3.70777 13.642C4.67359 13.642 5.48384 14.4903 5.48384 15.5019C5.48363 16.5133 4.67364 17.3618 3.70777 17.3618Z" fill="#878787"/>
</svg>
