<svg width="38" height="37" viewBox="0 0 38 37" fill="none" xmlns="http://www.w3.org/2000/svg">
<path d="M17.0934 9.56749C17.6353 9.56749 18.1384 9.71557 18.5504 9.96707C18.9731 10.2252 19.2989 10.5919 19.4708 11.0189H19.4712C19.4914 11.0684 19.4998 11.1191 19.4984 11.1687V21.3786C19.4984 21.4619 19.4705 21.54 19.422 21.6056C19.1962 21.96 18.8637 22.2573 18.4618 22.465C18.062 22.6719 17.5935 22.7908 17.0934 22.7908C16.5808 22.7908 16.0992 22.6638 15.69 22.4443C15.3473 22.2608 15.0572 22.0124 14.8435 21.72C14.2683 21.6293 13.7581 21.3798 13.3771 21.0269C12.9403 20.6221 12.6734 20.0811 12.6734 19.4873C12.6734 19.4199 12.6774 19.3493 12.6855 19.2767C12.4264 19.0949 12.2083 18.8719 12.0444 18.619C11.832 18.2914 11.7108 17.9161 11.7108 17.5191C11.7108 17.2439 11.7691 16.9792 11.8747 16.7335C11.9377 16.588 12.0174 16.4494 12.1124 16.3195C12.0191 16.1907 11.9407 16.0533 11.8788 15.9089C11.7738 15.6641 11.7162 15.4005 11.7162 15.1271C11.7162 14.8329 11.7822 14.5509 11.9017 14.2925C11.9757 14.132 12.0713 13.9799 12.1851 13.8393C12.1093 13.7226 12.0457 13.5999 11.9952 13.4726C11.904 13.2418 11.8542 12.9963 11.8542 12.7428C11.8542 12.1171 12.1511 11.5498 12.631 11.139L12.9834 11.4389L12.631 11.1373L12.6404 11.1292C13.1197 10.723 13.779 10.4721 14.5063 10.4721C14.6658 10.4721 14.8223 10.4845 14.9744 10.5075L14.9583 10.585V10.5847L14.9744 10.5075C14.9872 10.5095 14.9997 10.5118 15.0118 10.5144C15.2013 10.2753 15.4456 10.0708 15.7297 9.91348C16.1245 9.69482 16.5929 9.56778 17.0934 9.56778V9.56749ZM17.9742 10.6608C17.7271 10.5098 17.4229 10.4211 17.0934 10.4211C16.7881 10.4211 16.5058 10.4969 16.2709 10.6271C16.0326 10.7587 15.8397 10.9469 15.7179 11.1696C15.6189 11.3853 15.3362 11.4942 15.0811 11.4136L15.0815 11.4127C14.999 11.3868 14.9172 11.3663 14.8368 11.3522C14.8243 11.3511 14.8119 11.3496 14.7991 11.3476C14.7042 11.3332 14.6062 11.3257 14.5063 11.3257C14.0506 11.3257 13.638 11.4833 13.3388 11.7382L13.3361 11.7408H13.3357L13.3351 11.74C13.0362 11.9961 12.8511 12.3507 12.8511 12.7428C12.8511 12.9044 12.8817 13.0577 12.9376 13.1992C12.9928 13.3386 13.0722 13.4679 13.1712 13.5826C13.3398 13.746 13.3388 13.9954 13.1611 14.1573L12.7976 13.8655L13.1597 14.1571C13.0197 14.2853 12.9063 14.4371 12.8286 14.6056C12.7542 14.7667 12.7131 14.9424 12.7131 15.1268C12.7131 15.2999 12.7488 15.4644 12.8134 15.6157C12.878 15.766 12.9713 15.9043 13.0877 16.0259C13.262 16.1823 13.2731 16.4298 13.1052 16.5978L13.1042 16.5969C12.9787 16.7225 12.878 16.868 12.8094 17.0267C12.7437 17.1791 12.7077 17.3451 12.7077 17.5191C12.7077 17.7703 12.7821 18.0042 12.9127 18.2056C13.045 18.4099 13.2354 18.5836 13.4646 18.7103C13.6535 18.7996 13.7591 18.9878 13.71 19.177L13.708 19.1765C13.6979 19.2165 13.6891 19.2594 13.6824 19.3055L13.68 19.3315H13.679C13.6733 19.3778 13.6699 19.43 13.6699 19.4873C13.6699 19.8592 13.8369 20.1975 14.1095 20.4501C14.3791 20.7002 14.7533 20.8667 15.172 20.899C15.3507 20.9041 15.5203 20.9917 15.6041 21.1389L15.1558 21.3256L15.6038 21.1407C15.7404 21.3815 15.9538 21.584 16.2157 21.7243C16.4674 21.8592 16.7683 21.9372 17.0934 21.9372C17.4071 21.9372 17.6995 21.8632 17.9479 21.7347C18.1731 21.6183 18.3632 21.4578 18.5016 21.2671V11.2338C18.3925 11.0019 18.2077 10.8034 17.9742 10.6608Z" fill="#3D3D3D"/>
<path d="M16.1749 11.2295C15.906 11.2773 15.7334 11.5029 15.7892 11.7331C15.8451 11.963 16.1086 12.1108 16.3772 12.0629C16.3991 12.0592 16.4203 12.0563 16.4405 12.0546C16.4536 12.0534 16.4755 12.0528 16.5051 12.0528C16.6757 12.0528 16.8306 12.1119 16.9423 12.2078C16.949 12.2136 16.9558 12.2191 16.9628 12.2243C17.0624 12.3176 17.1237 12.4432 17.1237 12.5821C17.1237 12.8177 17.3468 13.0087 17.6221 13.0087C17.8971 13.0087 18.1206 12.8177 18.1206 12.5821C18.1206 12.2156 17.9523 11.8817 17.6783 11.6334C17.6686 11.6233 17.6581 11.6135 17.6474 11.6043C17.3549 11.3539 16.951 11.1992 16.5051 11.1992C16.458 11.1992 16.4025 11.2021 16.3395 11.2076C16.2833 11.2125 16.2285 11.22 16.1749 11.2295Z" fill="#3D3D3D"/>
<path d="M15.5183 14.7278C15.7869 14.7756 16.0504 14.6278 16.1063 14.3976C16.1622 14.1677 15.9895 13.9421 15.7206 13.8943C15.6674 13.8848 15.6122 13.8773 15.5563 13.8724C15.4931 13.867 15.4375 13.8641 15.3904 13.8641C14.9468 13.8641 14.5433 14.0188 14.2502 14.2691L14.2492 14.27L14.2481 14.2691C14.2374 14.2783 14.2269 14.2884 14.2172 14.2982C13.9432 14.5466 13.7753 14.8807 13.7753 15.2469C13.7753 15.4826 13.9984 15.6736 14.2734 15.6736C14.5487 15.6736 14.7718 15.4826 14.7718 15.2469C14.7718 15.108 14.8327 14.9824 14.9327 14.8891C14.9398 14.8836 14.9465 14.8781 14.9532 14.8724L14.6005 14.5708L14.9532 14.8709C15.0636 14.7762 15.2184 14.7174 15.3904 14.7174C15.42 14.7174 15.4419 14.718 15.455 14.7191C15.4752 14.7211 15.4964 14.724 15.5183 14.7278Z" fill="#3D3D3D"/>
<path d="M14.4683 18.5648C14.7368 18.6127 15.0004 18.4649 15.0562 18.235C15.1121 18.0048 14.9394 17.7792 14.6705 17.7314C14.6174 17.7219 14.5622 17.7144 14.5063 17.7095C14.4427 17.704 14.3875 17.7011 14.3404 17.7011C13.8961 17.7011 13.4922 17.8561 13.1991 18.1071L13.1981 18.1062C12.906 18.3566 12.7252 18.7023 12.7252 19.084C12.7252 19.3196 12.9484 19.5106 13.2233 19.5106C13.4986 19.5106 13.7218 19.3196 13.7218 19.084C13.7218 18.9379 13.7911 18.8054 13.9032 18.7098V18.7095L13.5505 18.4078L13.9032 18.708C14.0136 18.6132 14.1684 18.5545 14.3404 18.5545C14.37 18.5545 14.3919 18.555 14.405 18.5565C14.4252 18.5582 14.4464 18.5611 14.4683 18.5648Z" fill="#3D3D3D"/>
<path d="M16.4004 20.8065C16.6693 20.8543 16.9329 20.7065 16.9887 20.4766C17.0443 20.2464 16.872 20.0209 16.603 19.973C16.5495 19.9635 16.4947 19.956 16.4385 19.9511C16.3752 19.9457 16.32 19.9428 16.2725 19.9428C15.8286 19.9428 15.4248 20.0981 15.1316 20.3487L15.1306 20.3478V20.3481C14.8385 20.5982 14.6574 20.9439 14.6574 21.3256C14.6574 21.5613 14.8809 21.7526 15.1558 21.7526C15.4311 21.7526 15.6543 21.5613 15.6543 21.3256C15.6543 21.1796 15.7236 21.047 15.8354 20.9514H15.8357L15.483 20.6495L15.8354 20.9497C15.9461 20.8549 16.1009 20.7964 16.2725 20.7964C16.3025 20.7964 16.3244 20.797 16.3372 20.7981C16.3574 20.7999 16.3789 20.8027 16.4004 20.8065Z" fill="#3D3D3D"/>
<path d="M17.2634 17.7991C17.2772 18.0339 17.5111 18.2145 17.785 18.2027C18.0593 18.1906 18.2703 17.9907 18.2562 17.7559C18.2532 17.7089 18.2471 17.6608 18.2384 17.6127C18.2286 17.5606 18.2172 17.5136 18.2044 17.4727C18.0893 17.1051 17.8096 16.8112 17.4505 16.6338C17.0924 16.4569 16.6562 16.3964 16.2274 16.4949C15.9619 16.5557 15.8041 16.7893 15.8751 17.0166C15.9457 17.2439 16.2187 17.3791 16.4842 17.3183C16.6508 17.2802 16.8191 17.303 16.9561 17.3704C17.0917 17.4375 17.1981 17.5505 17.2425 17.6928C17.2496 17.7156 17.2546 17.7331 17.257 17.7461C17.26 17.7625 17.2624 17.7807 17.2634 17.7991Z" fill="#3D3D3D"/>
<path d="M21.6228 12.0632C21.8914 12.1108 22.1549 11.963 22.2108 11.7331C22.2666 11.5029 22.094 11.2773 21.8251 11.2295C21.7716 11.22 21.7167 11.2125 21.6605 11.2076C21.5976 11.2021 21.542 11.1992 21.4949 11.1992C21.049 11.1992 20.6451 11.3539 20.3526 11.6043C20.3419 11.6135 20.3314 11.6233 20.3217 11.6334C20.0477 11.8817 19.8794 12.2156 19.8794 12.5821C19.8794 12.8177 20.1029 13.0087 20.3779 13.0087C20.6532 13.0087 20.8763 12.8177 20.8763 12.5821C20.8763 12.4432 20.9376 12.3176 21.0372 12.2243C21.0442 12.2191 21.051 12.2136 21.0574 12.2078C21.1694 12.1122 21.3243 12.0528 21.4946 12.0528C21.5245 12.0528 21.5464 12.0534 21.5595 12.0546C21.5797 12.0563 21.6009 12.0592 21.6228 12.0632Z" fill="#3D3D3D"/>
<path d="M22.2794 13.8943C22.0105 13.9421 21.8379 14.1677 21.8937 14.3976C21.9496 14.6278 22.2131 14.7756 22.4817 14.7278C22.5036 14.724 22.5248 14.7211 22.545 14.7191C22.5581 14.718 22.58 14.7174 22.6096 14.7174C22.7816 14.7174 22.9364 14.7762 23.0468 14.8709L23.3995 14.5708L23.0468 14.8724C23.0535 14.8781 23.0602 14.8836 23.0673 14.8891C23.1673 14.9824 23.2282 15.108 23.2282 15.2469C23.2282 15.4826 23.4513 15.6736 23.7263 15.6736C24.0016 15.6736 24.2247 15.4826 24.2247 15.2469C24.2247 14.8807 24.0568 14.5466 23.7828 14.2982C23.7731 14.2884 23.7626 14.2783 23.7519 14.2691L23.7508 14.27L23.7498 14.2691C23.4567 14.0188 23.0532 13.8641 22.6096 13.8641C22.5625 13.8641 22.5069 13.867 22.4437 13.8724C22.3878 13.8773 22.3326 13.8848 22.2794 13.8943Z" fill="#3D3D3D"/>
<path d="M23.3295 17.7314C23.0606 17.7792 22.8879 18.0048 22.9438 18.235C22.9996 18.4649 23.2632 18.6127 23.5317 18.5648C23.5536 18.5611 23.5748 18.5582 23.595 18.5565C23.6081 18.555 23.63 18.5545 23.6596 18.5545C23.8316 18.5545 23.9864 18.6132 24.0968 18.708L24.4495 18.4078L24.0968 18.7095V18.7098C24.2089 18.8054 24.2782 18.9379 24.2782 19.084C24.2782 19.3196 24.5014 19.5106 24.7767 19.5106C25.0516 19.5106 25.2748 19.3196 25.2748 19.084C25.2748 18.7023 25.094 18.3566 24.8019 18.1062L24.8009 18.1071C24.5078 17.8561 24.1039 17.7011 23.6596 17.7011C23.6125 17.7011 23.557 17.704 23.4937 17.7095C23.4378 17.7144 23.3826 17.7219 23.3295 17.7314Z" fill="#3D3D3D"/>
<path d="M21.397 19.973C21.1281 20.0209 20.9557 20.2464 21.0113 20.4766C21.0671 20.7065 21.3307 20.8543 21.5992 20.8065C21.6211 20.8027 21.6423 20.7999 21.6628 20.7981C21.6756 20.797 21.6975 20.7964 21.7275 20.7964C21.8991 20.7964 22.0539 20.8549 22.1646 20.9497L22.517 20.6495L22.1643 20.9514H22.1646C22.2764 21.047 22.3457 21.1796 22.3457 21.3256C22.3457 21.5613 22.5689 21.7526 22.8442 21.7526C23.1191 21.7526 23.3426 21.5613 23.3426 21.3256C23.3426 20.9439 23.1615 20.5982 22.8694 20.3481V20.3478L22.8684 20.3487C22.5752 20.0981 22.1714 19.9428 21.7275 19.9428C21.68 19.9428 21.6248 19.9457 21.5615 19.9511C21.5053 19.956 21.4505 19.9635 21.397 19.973Z" fill="#3D3D3D"/>
<path d="M19.7438 17.7559C19.7297 17.9907 19.9407 18.1906 20.215 18.2027C20.4889 18.2145 20.7228 18.0339 20.7366 17.7991C20.7376 17.7807 20.74 17.7628 20.743 17.7461C20.7454 17.7331 20.7504 17.7156 20.7575 17.6928C20.8019 17.5505 20.9083 17.4375 21.0439 17.3704C21.1809 17.303 21.3492 17.2802 21.5158 17.3183C21.7813 17.3791 22.0543 17.2439 22.1249 17.0166C22.1959 16.7893 22.0381 16.5557 21.7726 16.4949C21.3438 16.3964 20.9076 16.4569 20.5495 16.6338C20.1904 16.8112 19.9107 17.1051 19.7956 17.4727C19.7828 17.5136 19.7714 17.5606 19.7616 17.6127C19.7529 17.6608 19.7468 17.7089 19.7438 17.7559Z" fill="#3D3D3D"/>
<path d="M13.4303 27.5262C13.4303 27.7618 13.6535 27.9529 13.9288 27.9529C14.2037 27.9529 14.4272 27.7618 14.4272 27.5262C14.4272 23.1423 12.9356 21.8191 11.5055 20.5504C10.3232 19.5014 9.18734 18.4937 9.18734 15.3722C9.18734 13.0519 10.2859 10.9515 12.0615 9.43122C13.8372 7.91097 16.2904 6.97035 19 6.97035C21.7096 6.97035 24.1631 7.91097 25.9385 9.43122C27.7141 10.9515 28.8127 13.0519 28.8127 15.3722C28.8127 18.4937 27.6768 19.5014 26.4945 20.5504C25.0644 21.8191 23.5728 23.1423 23.5728 27.5262C23.5728 27.7618 23.7959 27.9529 24.0712 27.9529C24.3465 27.9529 24.5697 27.7618 24.5697 27.5262C24.5697 23.4837 25.9179 22.2873 27.2106 21.1407C28.5363 19.9647 29.8095 18.8351 29.8095 15.3722C29.8095 12.8166 28.5993 10.5023 26.6432 8.82767C24.6875 7.153 21.9849 6.11674 19 6.11674C16.0151 6.11674 13.3125 7.153 11.3568 8.82767C9.40072 10.5023 8.19046 12.8166 8.19046 15.3722C8.19046 18.8348 9.46399 19.9647 10.7894 21.1404C12.0821 22.2873 13.4303 23.4834 13.4303 27.5262Z" fill="#3D3D3D"/>
<path d="M14.0933 30.1879C14.3686 30.1879 14.5918 29.9969 14.5918 29.7612C14.5918 29.5255 14.3686 29.3342 14.0933 29.3342C13.8722 29.3342 13.6706 29.2565 13.5242 29.1311C13.3778 29.0058 13.2869 28.8333 13.2869 28.6437C13.2869 28.4541 13.3778 28.2816 13.5242 28.1562C13.6706 28.0309 13.8722 27.9531 14.0933 27.9531H23.9067C24.1278 27.9531 24.3294 28.0309 24.4758 28.1562C24.6222 28.2816 24.7131 28.4541 24.7131 28.6437C24.7131 28.8333 24.6222 29.0058 24.4758 29.1311C24.3294 29.2565 24.1278 29.3342 23.9067 29.3342C23.6314 29.3342 23.4082 29.5255 23.4082 29.7612C23.4082 29.9969 23.6314 30.1879 23.9067 30.1879C24.4031 30.1879 24.8541 30.0144 25.1805 29.7347C25.5073 29.455 25.7099 29.0689 25.7099 28.6437C25.7099 28.2185 25.5073 27.8324 25.1805 27.5527C24.8541 27.273 24.4031 27.0995 23.9067 27.0995H14.0933C13.5969 27.0995 13.1459 27.273 12.8195 27.5527C12.4927 27.8324 12.2901 28.2185 12.2901 28.6437C12.2901 29.0689 12.4927 29.455 12.8195 29.7347C13.1459 30.0144 13.5969 30.1879 14.0933 30.1879Z" fill="#3D3D3D"/>
<path d="M14.3033 32.4229C14.5786 32.4229 14.8018 32.2316 14.8018 31.9959C14.8018 31.7605 14.5786 31.5693 14.3033 31.5693H13.1961C12.975 31.5693 12.7734 31.4915 12.627 31.3659C12.4805 31.2405 12.3897 31.068 12.3897 30.8787V30.8784C12.3897 30.6891 12.4805 30.5163 12.627 30.391C12.7734 30.2656 12.975 30.1879 13.1961 30.1879H24.8039C25.025 30.1879 25.2266 30.2656 25.373 30.391C25.5194 30.5163 25.6103 30.6891 25.6103 30.8784V30.8787C25.6103 31.068 25.5194 31.2405 25.373 31.3659L25.3529 31.3843C25.2095 31.4987 25.0163 31.5693 24.8039 31.5693H23.6973C23.422 31.5693 23.1989 31.7605 23.1989 31.9959C23.1989 32.2316 23.422 32.4229 23.6973 32.4229H24.8039C25.2825 32.4229 25.72 32.2598 26.0448 31.9953C26.0563 31.9873 26.067 31.9786 26.0778 31.9694C26.4043 31.69 26.6072 31.3036 26.6072 30.8787V30.8784C26.6072 30.4535 26.4046 30.0671 26.0778 29.7877C25.7513 29.508 25.3004 29.3342 24.8039 29.3342H13.1961C12.6996 29.3342 12.2487 29.508 11.9222 29.7877C11.5954 30.0671 11.3928 30.4535 11.3928 30.8784V30.8787C11.3928 31.3036 11.5954 31.69 11.9222 31.9694C12.2487 32.2491 12.6996 32.4229 13.1961 32.4229H14.3033Z" fill="#3D3D3D"/>
<path d="M14.3431 31.5693H23.6569C24.1534 31.5693 24.6044 31.743 24.9308 32.0224C25.2576 32.3022 25.4602 32.6885 25.4602 33.1134C25.4602 33.5386 25.2576 33.9247 24.9308 34.2044C24.6044 34.4842 24.1534 34.6576 23.6569 34.6576H14.3431C13.8466 34.6576 13.3957 34.4842 13.0689 34.2044C12.7424 33.9247 12.5394 33.5386 12.5394 33.1134C12.5394 32.6885 12.7424 32.3022 13.0689 32.0224C13.3957 31.743 13.8466 31.5693 14.3431 31.5693ZM23.6569 32.4229H14.3431C14.1219 32.4229 13.9203 32.5006 13.7739 32.626C13.6275 32.7513 13.5363 32.9239 13.5363 33.1134C13.5363 33.303 13.6275 33.4755 13.7739 33.6009C13.9203 33.7262 14.1219 33.8043 14.3431 33.8043H23.6569C23.8781 33.8043 24.0797 33.7262 24.2261 33.6009C24.3725 33.4755 24.4633 33.303 24.4633 33.1134C24.4633 32.9239 24.3725 32.7513 24.2261 32.626C24.0797 32.5006 23.8781 32.4229 23.6569 32.4229Z" fill="#3D3D3D"/>
<path d="M22.1344 34.2309C22.1344 33.9953 21.9109 33.8043 21.6359 33.8043C21.3606 33.8043 21.1375 33.9953 21.1375 34.2309V35.1105C21.1375 35.2355 21.0786 35.3487 20.9837 35.4297L21.334 35.7316L20.9816 35.4297L20.9628 35.4467C20.8699 35.5187 20.7454 35.5631 20.6087 35.5631H17.3913C17.2465 35.5631 17.1143 35.5121 17.018 35.4297C16.9221 35.3476 16.8625 35.2343 16.8625 35.1105V34.2309C16.8625 33.9953 16.6394 33.8043 16.3641 33.8043C16.0888 33.8043 15.8656 33.9953 15.8656 34.2309V35.1105C15.8656 35.47 16.0373 35.797 16.3133 36.0332C16.5892 36.2697 16.9712 36.4167 17.3909 36.4167H20.6087C21.0109 36.4167 21.3788 36.2807 21.6527 36.0597C21.6642 36.0514 21.6756 36.0427 21.6864 36.0335L21.6854 36.0326V36.0323L21.6864 36.0315C21.9627 35.7944 22.1344 35.468 22.1344 35.1105V34.2309Z" fill="#3D3D3D"/>
<path d="M18.5016 27.5262C18.5016 27.7618 18.7247 27.9531 19 27.9531C19.2753 27.9531 19.4984 27.7618 19.4984 27.5262L19.4984 21.3786C19.4984 21.143 19.2753 20.9517 19 20.9517C18.7247 20.9517 18.5016 21.143 18.5016 21.3786V27.5262Z" fill="#3D3D3D"/>
<path d="M19.4984 0.426662C19.4984 0.191004 19.2753 0 19 0C18.7247 0 18.5016 0.191004 18.5016 0.426662V3.0938C18.5016 3.32946 18.7247 3.52047 19 3.52047C19.2753 3.52047 19.4984 3.32946 19.4984 3.0938V0.426662Z" fill="#3D3D3D"/>
<path d="M28.6811 2.76221C28.8187 2.55911 28.7376 2.29839 28.5 2.18056C28.2624 2.06273 27.9581 2.13216 27.8205 2.33555L26.2629 4.64546C26.1256 4.84885 26.2067 5.10957 26.444 5.22711C26.6816 5.34494 26.9858 5.27551 27.1235 5.07212L28.6811 2.76221Z" fill="#3D3D3D"/>
<path d="M35.2722 8.71589C35.5098 8.59806 35.5906 8.33734 35.4533 8.13395C35.3156 7.93056 35.0114 7.86141 34.7738 7.97896L32.0759 9.31282C31.8383 9.43036 31.7575 9.69108 31.8949 9.89447C32.0325 10.0979 32.3368 10.1673 32.5744 10.0495L35.2722 8.71589Z" fill="#3D3D3D"/>
<path d="M37.5016 16.6951C37.7769 16.6951 38 16.5038 38 16.2682C38 16.0325 37.7769 15.8415 37.5016 15.8415H34.3867C34.1114 15.8415 33.8883 16.0325 33.8883 16.2682C33.8883 16.5038 34.1114 16.6951 34.3867 16.6951H37.5016Z" fill="#3D3D3D"/>
<path d="M0.498441 15.8415C0.223137 15.8415 0 16.0325 0 16.2682C0 16.5038 0.223137 16.6951 0.498441 16.6951H3.61328C3.88858 16.6951 4.11172 16.5038 4.11172 16.2682C4.11172 16.0325 3.88858 15.8415 3.61328 15.8415H0.498441Z" fill="#3D3D3D"/>
<path d="M3.22624 7.97896C2.98863 7.86141 2.68438 7.93056 2.54673 8.13395C2.40941 8.33734 2.49019 8.59806 2.7278 8.71589L5.42564 10.0495C5.66325 10.1673 5.9675 10.0979 6.10515 9.89447C6.24246 9.69108 6.16135 9.43036 5.92408 9.31282L3.22624 7.97896Z" fill="#3D3D3D"/>
<path d="M10.1795 2.33555C10.0419 2.13216 9.73761 2.06273 9.5 2.18056C9.26239 2.29839 9.18128 2.55911 9.31893 2.76221L10.8765 5.07212C11.0142 5.27551 11.3184 5.34494 11.556 5.22711C11.7933 5.10957 11.8744 4.84885 11.7368 4.64546L10.1795 2.33555Z" fill="#3D3D3D"/>
<path d="M20.9069 9.56749C20.3651 9.56749 19.8623 9.71557 19.45 9.96707C19.0273 10.2252 18.7015 10.5919 18.5295 11.0189H18.5292C18.5093 11.0684 18.5005 11.1191 18.5019 11.1687V21.3786C18.5019 21.4619 18.5298 21.54 18.5783 21.6056C18.8041 21.96 19.1366 22.2573 19.5385 22.465C19.9383 22.6719 20.4068 22.7908 20.9069 22.7908C21.4195 22.7908 21.9011 22.6638 22.3104 22.4443C22.6533 22.2608 22.9431 22.0124 23.1568 21.72C23.732 21.6293 24.2422 21.3798 24.6232 21.0269C25.06 20.6221 25.3273 20.0811 25.3273 19.4873C25.3273 19.4199 25.3229 19.3493 25.3148 19.2767C25.574 19.0949 25.7924 18.8719 25.956 18.619C26.1687 18.2914 26.2895 17.9161 26.2895 17.5191C26.2895 17.2439 26.2316 16.9792 26.1256 16.7335C26.063 16.588 25.9829 16.4494 25.888 16.3195C25.9812 16.1907 26.06 16.0533 26.1215 15.9089C26.2266 15.6641 26.2841 15.4005 26.2841 15.1271C26.2841 14.8329 26.2185 14.5509 26.0987 14.2925C26.0246 14.132 25.9294 13.9799 25.8153 13.8393C25.891 13.7226 25.9546 13.5999 26.0051 13.4726C26.0963 13.2418 26.1461 12.9963 26.1461 12.7428C26.1461 12.1171 25.8493 11.5498 25.3693 11.139L25.017 11.4389L25.3693 11.1373L25.3599 11.1292C24.881 10.723 24.2217 10.4721 23.494 10.4721C23.3345 10.4721 23.178 10.4845 23.0259 10.5075L23.0421 10.585V10.5847L23.0259 10.5075C23.0131 10.5095 23.0007 10.5118 22.9885 10.5144C22.7991 10.2753 22.5547 10.0708 22.271 9.91348C21.8759 9.69482 21.4074 9.56778 20.9069 9.56778V9.56749ZM20.0262 10.6608C20.2732 10.5098 20.5774 10.4211 20.9069 10.4211C21.2122 10.4211 21.4946 10.4969 21.7295 10.6271C21.9678 10.7587 22.1606 10.9469 22.2824 11.1696C22.3814 11.3853 22.6644 11.4942 22.9192 11.4136V11.4127C23.0013 11.3868 23.0831 11.3663 23.1635 11.3522C23.1763 11.3511 23.1888 11.3496 23.2012 11.3476C23.2962 11.3332 23.3941 11.3257 23.494 11.3257C23.9497 11.3257 24.3624 11.4833 24.6616 11.7382L24.6646 11.7408L24.6656 11.74C24.9645 11.9961 25.1492 12.3507 25.1492 12.7428C25.1492 12.9044 25.1189 13.0577 25.0627 13.1992C25.0075 13.3386 24.9281 13.4679 24.8295 13.5826C24.6606 13.746 24.6616 13.9954 24.8393 14.1573L25.2027 13.8655L24.8406 14.1571C24.9806 14.2853 25.094 14.4371 25.1721 14.6056C25.2465 14.7667 25.2872 14.9424 25.2872 15.1268C25.2872 15.2999 25.2519 15.4644 25.1869 15.6157C25.1226 15.766 25.0291 15.9043 24.913 16.0259C24.7383 16.1823 24.7272 16.4298 24.8951 16.5978L24.8961 16.5969C25.022 16.7225 25.1223 16.868 25.191 17.0267C25.2566 17.1791 25.2926 17.3451 25.2926 17.5191C25.2926 17.7703 25.2182 18.0042 25.0876 18.2056C24.9554 18.4099 24.7652 18.5836 24.536 18.7103C24.3472 18.7996 24.2412 18.9878 24.2903 19.177L24.2924 19.1765C24.3025 19.2165 24.3112 19.2594 24.3179 19.3055L24.3203 19.3315H24.3213C24.3274 19.3778 24.3304 19.43 24.3304 19.4873C24.3304 19.8592 24.1638 20.1975 23.8912 20.4501C23.6213 20.7002 23.247 20.8667 22.8283 20.899C22.6496 20.9041 22.48 20.9917 22.3962 21.1389L22.8445 21.3256L22.3965 21.1407C22.2599 21.3815 22.0465 21.584 21.7847 21.7243C21.5329 21.8592 21.232 21.9372 20.9069 21.9372C20.5936 21.9372 20.3008 21.8632 20.0524 21.7347C19.8273 21.6183 19.6371 21.4578 19.4988 21.2671V11.2338C19.6082 11.0019 19.7926 10.8034 20.0262 10.6608Z" fill="#3D3D3D"/>
</svg>
