<svg width="20" height="24" viewBox="0 0 20 24" fill="none" xmlns="http://www.w3.org/2000/svg">
<path d="M17.4368 21.0866L18.1646 5.66455H19.2194C19.652 5.66455 20 5.30589 20 4.87342C20 4.44094 19.652 4.07175 19.2194 4.07175H14.6097V2.48943C14.6097 0.98102 13.5865 0 11.9621 0H8.0169C6.39241 0 5.37975 0.98102 5.37975 2.48943V4.07175H0.791135C0.369194 4.07175 0 4.44094 0 4.87342C0 5.30589 0.369194 5.66455 0.791135 5.66455H1.84601L2.57382 21.0971C2.64768 22.6161 3.64981 23.576 5.1688 23.576H14.8418C16.3503 23.576 17.3629 22.6055 17.4368 21.0866ZM7.06752 2.59493C7.06752 1.99368 7.51057 1.57174 8.1435 1.57174H11.846C12.4895 1.57174 12.9325 1.99368 12.9325 2.59493V4.07175H7.06752V2.59493ZM5.32704 21.9937C4.71522 21.9937 4.26159 21.5296 4.22995 20.9178L3.49156 5.66455H16.4768L15.7806 20.9178C15.749 21.5401 15.3059 21.9937 14.6836 21.9937H5.32704ZM13.1329 20.1372C13.481 20.1372 13.7448 19.8524 13.7553 19.4515L14.0718 8.31223C14.0823 7.9114 13.8081 7.61606 13.4494 7.61606C13.1224 7.61606 12.8481 7.92198 12.8376 8.3017L12.5211 19.4515C12.5106 19.8313 12.7743 20.1372 13.1329 20.1372ZM6.87767 20.1372C7.23634 20.1372 7.50003 19.8313 7.48946 19.4515L7.17301 8.3017C7.16248 7.92198 6.87768 7.61606 6.55065 7.61606C6.19199 7.61606 5.9283 7.9114 5.93883 8.31223L6.26585 19.4515C6.27638 19.8524 6.52954 20.1372 6.87767 20.1372ZM10.6435 19.4515V8.3017C10.6435 7.92198 10.3587 7.61606 10.0106 7.61606C9.66245 7.61606 9.36711 7.92198 9.36711 8.3017V19.4515C9.36711 19.8313 9.66245 20.1372 10.0106 20.1372C10.3481 20.1372 10.6435 19.8313 10.6435 19.4515Z" fill="#E10000"/>
</svg>
