<svg width="20" height="17" viewBox="0 0 20 17" fill="none" xmlns="http://www.w3.org/2000/svg">
<path d="M9.96949 5.92372C10.1306 5.92372 10.2641 5.97203 10.4134 6.10599L13.345 8.93269C13.4729 9.06056 13.5496 9.19695 13.5496 9.38447C13.5496 9.73394 13.2938 9.98114 12.9358 9.98114C12.7654 9.98114 12.5864 9.91295 12.467 9.77656L11.1714 8.40421L10.5917 7.79899L10.6514 9.06907V15.6382C10.6514 15.9962 10.336 16.2946 9.96949 16.2946C9.60296 16.2946 9.29607 15.9962 9.29607 15.6382V9.06907L9.34725 7.79899L8.76759 8.40421L7.48045 9.77656C7.36112 9.91295 7.18212 9.98114 7.02016 9.98114C6.66215 9.98114 6.39792 9.73394 6.39792 9.38447C6.39792 9.19695 6.46612 9.06056 6.59395 8.93269L9.47508 6.15386C9.64558 5.98337 9.79899 5.92372 9.96949 5.92372ZM11.6922 0C14.7859 0 17.2939 2.50797 17.2939 5.6017C17.2939 5.77768 17.2858 5.95177 17.2699 6.1236C18.8351 6.49245 20 7.89813 20 9.57589C20 11.5347 18.4121 13.1227 16.4532 13.1227H12.3625V11.7588H16.4532C17.6588 11.7588 18.6362 10.7815 18.6362 9.57589C18.6362 8.55798 17.9331 7.68109 16.9571 7.45108L15.8028 7.17905L15.9119 5.99813C15.924 5.86708 15.9301 5.73486 15.9301 5.6017C15.9301 3.2612 14.0327 1.36384 11.6922 1.36384C10.2395 1.36384 8.9142 2.09902 8.13623 3.29518L7.58179 4.14765L6.60655 3.85956C6.44117 3.81071 6.26826 3.78557 6.09051 3.78557C5.11388 3.78557 4.3173 4.55645 4.27605 5.52292L4.27458 5.62957L4.30839 6.77542L3.21845 7.02679C2.1414 7.27519 1.36384 8.24045 1.36384 9.36218C1.36384 10.6858 2.43686 11.7588 3.76048 11.7588H7.63448V13.1227H3.76048C1.68362 13.1227 0 11.439 0 9.36218C0 7.57713 1.24376 6.08256 2.91195 5.69783L2.91053 5.6017C2.91053 3.84545 4.33425 2.42173 6.09051 2.42173C6.40397 2.42173 6.70685 2.46708 6.99293 2.55159C7.99188 1.01566 9.72344 0 11.6922 0Z" fill="#1400FB"/>
</svg>
