<svg width="27" height="45" viewBox="0 0 27 45" fill="none" xmlns="http://www.w3.org/2000/svg">
<path d="M21.2687 28.4898H14.6777C10.5863 28.4898 7.25588 25.1495 7.25588 21.0455V3.63879C7.25588 1.63304 5.62955 0 3.62794 0C1.62842 0 0 1.63304 0 3.63879V21.0465C0 23.2901 0.522975 25.5369 1.51099 27.5504C1.97446 28.4945 2.21977 29.5489 2.21977 30.6043V44.4956C2.21977 44.7752 2.4442 45 2.72291 45H19.7431V36.2222C19.7431 35.943 19.9701 35.7177 20.2457 35.7177C20.5234 35.7177 20.7488 35.943 20.7488 36.2222V45H26.4969C26.7756 45 27 44.7752 27 44.4956V34.2399C26.999 31.069 24.4269 28.4898 21.2687 28.4898Z" fill="#3D3D3D"/>
<path d="M14.6777 14.1354C10.8807 14.1354 7.78981 17.2342 7.78981 21.0455C7.78981 24.8542 10.8796 27.954 14.6777 27.954C18.4769 27.954 21.5672 24.8552 21.5672 21.0455C21.5672 17.2363 18.4769 14.1354 14.6777 14.1354Z" fill="#3D3D3D"/>
</svg>
